<?xml version="1.0" encoding="UTF-8" standalone="no"?>
<!-- Created with Inkscape (http://www.inkscape.org/) -->

<svg
   xmlns:dc="http://purl.org/dc/elements/1.1/"
   xmlns:cc="http://creativecommons.org/ns#"
   xmlns:rdf="http://www.w3.org/1999/02/22-rdf-syntax-ns#"
   xmlns:svg="http://www.w3.org/2000/svg"
   xmlns="http://www.w3.org/2000/svg"
   xmlns:sodipodi="http://sodipodi.sourceforge.net/DTD/sodipodi-0.dtd"
   xmlns:inkscape="http://www.inkscape.org/namespaces/inkscape"
   version="1.1"
   id="svg4811"
   xml:space="preserve"
   width="800"
   height="800"
   viewBox="0 0 800 800"
   sodipodi:docname="concept-logotype-design-3-publicdomainvectors.org.svg"
   inkscape:version="0.92.4 (5da689c313, 2019-01-14)"><metadata
     id="metadata4817"><rdf:RDF><cc:Work
         rdf:about=""><dc:format>image/svg+xml</dc:format><dc:type
           rdf:resource="http://purl.org/dc/dcmitype/StillImage" /><dc:title></dc:title></cc:Work></rdf:RDF></metadata><defs
     id="defs4815"><clipPath
       clipPathUnits="userSpaceOnUse"
       id="clipPath4827"><path
         d="M 0,600 H 600 V 0 H 0 Z"
         id="path4825"
         inkscape:connector-curvature="0" /></clipPath><linearGradient
       x1="0"
       y1="0"
       x2="1"
       y2="0"
       gradientUnits="userSpaceOnUse"
       gradientTransform="matrix(194.35484,-286.73486,-286.73486,-194.35484,208.04395,473.25391)"
       spreadMethod="pad"
       id="linearGradient4847"><stop
         style="stop-opacity:1;stop-color:#1aaeec"
         offset="0"
         id="stop4841" /><stop
         style="stop-opacity:1;stop-color:#4253a7"
         offset="0.488764"
         id="stop4843" /><stop
         style="stop-opacity:1;stop-color:#e70c8d"
         offset="1"
         id="stop4845" /></linearGradient></defs><sodipodi:namedview
     pagecolor="#ffffff"
     bordercolor="#666666"
     borderopacity="1"
     objecttolerance="10"
     gridtolerance="10"
     guidetolerance="10"
     inkscape:pageopacity="0"
     inkscape:pageshadow="2"
     inkscape:window-width="797"
     inkscape:window-height="480"
     id="namedview4813"
     showgrid="false"
     inkscape:zoom="0.295"
     inkscape:cx="400"
     inkscape:cy="400"
     inkscape:window-x="0"
     inkscape:window-y="0"
     inkscape:window-maximized="0"
     inkscape:current-layer="g4819" /><g
     id="g4819"
     inkscape:groupmode="layer"
     inkscape:label="concept-logotype-design-3-publicdomainvectors.org"
     transform="matrix(1.3333333,0,0,-1.3333333,0,800)"><g
       id="g4821"><g
         id="g4823"
         clip-path="url(#clipPath4827)"><g
           id="g4829"><g
             id="g4831"><g
               id="g4837"><g
                 id="g4839"><path
                   d="m 384.518,318.364 c 1.925,-0.513 4.01,-1.071 6.264,-1.649 6.829,-1.798 14.657,-3.367 23.356,-4.308 -13.612,7.371 -26.994,17.622 -38.972,30.168 -8.578,9.022 -16.266,19.094 -22.883,29.912 -11.47,18.226 -19.602,38.299 -24.447,58.938 -0.943,3.996 -1.769,8.026 -2.448,12.098 3.083,-9.276 7.395,-18.395 12.872,-27.049 8.721,-23.309 21.328,-43.966 36.092,-60.855 17.618,-20.085 38.892,-35.01 59.432,-42.85 10.255,-3.955 20.719,-6.14 30.596,-6.707 -0.946,-0.381 -1.883,-0.765 -2.845,-1.109 -7.384,-1.986 -14.523,-3.154 -21.16,-3.83 -17.888,-1.74 -33.099,0.197 -44.712,2.343 z m -11.299,61.299 c 0.371,-0.479 0.692,-0.965 1.072,-1.455 13.949,-18.867 31.255,-34.621 49.822,-44.984 14.7,-8.596 29.814,-13.572 43.184,-15.284 4.721,-0.417 9.144,-0.609 13.127,-0.39 2.304,0.053 4.514,0.445 6.722,0.781 8.134,5.58 15.482,12.119 21.98,19.423 -4.212,-2.268 -9.004,-4.117 -14.349,-5.278 -18.163,-4.146 -42.727,0.205 -65.218,12.901 -7.993,4.719 -16.138,10.505 -24.104,17.415 -11.374,4.06 -22.378,9.838 -32.236,16.871 m -52.894,-63.22 c -1.092,-1.003 -2.279,-2.086 -3.529,-3.281 -3.845,-3.577 -7.697,-8.039 -11.07,-13.585 11.899,4.355 26.982,6.436 44.261,5.827 12.414,-0.459 25.767,-2.326 39.676,-5.51 23.51,-5.133 48.207,-14.006 72.659,-25.66 4.732,-2.248 9.475,-4.613 14.222,-7.106 -11.231,4.587 -22.609,8.178 -33.787,10.592 -28.48,10.824 -55.026,16.918 -77.922,18.715 -27.238,2.085 -49.673,-2.229 -63.958,-11.206 -7.183,-4.453 -12.435,-10.35 -15.708,-17.011 -0.17,0.949 -0.355,1.904 -0.485,2.849 -0.251,6.745 0.347,12.722 1.358,17.974 2.83,14.098 9.071,23.577 14.586,30.329 z m 44.244,-47.556 c -9.884,-0.65 -18.547,-2.247 -25.981,-4.519 -20.259,-6.816 -31.711,-21.233 -31.914,-37.292 -0.12,-4.683 0.67,-9.47 2.089,-14.15 -6.455,10.009 -11.834,20.064 -15.916,29.982 0.216,1.826 0.362,3.703 0.918,5.397 0.819,3.008 2.222,6.037 3.958,9.114 5.484,8.333 15.115,15.519 28.687,19.756 16.591,5.717 38.883,6.578 63.786,2.752 0.651,-0.082 1.28,-0.215 1.915,-0.296 -10.526,-1.911 -19.949,-5.565 -27.542,-10.744 m -47.825,140.295 c 0.512,1.924 1.071,4.011 1.649,6.264 1.798,6.829 3.368,14.658 4.306,23.357 -7.369,-13.612 -17.622,-26.995 -30.166,-38.973 -9.022,-8.578 -19.095,-16.266 -29.913,-22.883 -18.225,-11.471 -38.298,-19.603 -58.937,-24.446 -3.996,-0.944 -8.027,-1.77 -12.099,-2.45 9.276,3.083 18.395,7.397 27.049,12.872 23.311,8.723 43.967,21.33 60.856,36.094 20.085,17.617 35.01,38.892 42.85,59.432 3.955,10.254 6.139,20.718 6.707,30.595 0.38,-0.946 0.765,-1.883 1.108,-2.845 1.987,-7.385 3.155,-14.523 3.831,-21.159 1.74,-17.889 -0.197,-33.099 -2.342,-44.713 z m -61.299,-11.299 c 0.479,0.371 0.965,0.693 1.455,1.073 18.867,13.949 34.621,31.252 44.983,49.821 8.597,14.701 13.572,29.814 15.284,43.184 0.418,4.722 0.609,9.143 0.391,13.128 -0.052,2.303 -0.446,4.514 -0.781,6.72 -5.58,8.135 -12.119,15.484 -19.423,21.981 2.269,-4.212 4.117,-9.002 5.279,-14.348 4.144,-18.164 -0.206,-42.728 -12.903,-65.219 -4.719,-7.992 -10.504,-16.137 -17.416,-24.103 -4.059,-11.374 -9.836,-22.378 -16.869,-32.237 m 63.219,-52.895 c 1.004,-1.09 2.087,-2.278 3.28,-3.528 3.579,-3.844 8.04,-7.698 13.586,-11.069 -4.354,11.898 -6.435,26.982 -5.826,44.261 0.458,12.415 2.325,25.766 5.51,39.676 5.132,23.51 14.006,48.207 25.659,72.658 2.249,4.733 4.612,9.474 7.106,14.223 -4.586,-11.231 -8.175,-22.609 -10.589,-33.789 -10.827,-28.479 -16.921,-55.023 -18.717,-77.92 -2.085,-27.24 2.228,-49.673 11.206,-63.959 4.452,-7.182 10.35,-12.435 17.012,-15.707 -0.952,-0.17 -1.906,-0.356 -2.85,-0.486 -6.746,-0.25 -12.722,0.347 -17.975,1.359 -14.096,2.828 -23.576,9.07 -30.329,14.586 z m 47.558,44.246 c 0.649,-9.885 2.247,-18.547 4.517,-25.982 6.817,-20.259 21.235,-31.711 37.293,-31.914 4.683,-0.121 9.47,0.669 14.152,2.089 -10.01,-6.454 -20.067,-11.834 -29.986,-15.916 -1.825,0.217 -3.702,0.363 -5.395,0.919 -3.009,0.82 -6.036,2.221 -9.115,3.958 -8.334,5.483 -15.517,15.113 -19.754,28.686 -5.719,16.591 -6.58,38.884 -2.753,63.787 0.083,0.649 0.214,1.279 0.296,1.915 1.911,-10.526 5.565,-19.95 10.745,-27.542 M 225.926,341.408 c -1.926,0.512 -4.011,1.071 -6.265,1.649 -6.828,1.798 -14.658,3.367 -23.356,4.307 13.612,-7.371 26.994,-17.622 38.973,-30.167 8.577,-9.021 16.265,-19.094 22.884,-29.913 11.469,-18.224 19.602,-38.298 24.445,-58.936 0.944,-3.995 1.77,-8.027 2.449,-12.098 -3.082,9.275 -7.396,18.395 -12.871,27.048 -8.724,23.309 -21.33,43.968 -36.094,60.855 -17.617,20.086 -38.892,35.011 -59.432,42.851 -10.255,3.954 -20.718,6.138 -30.595,6.707 0.946,0.379 1.883,0.764 2.844,1.108 7.385,1.985 14.524,3.154 21.161,3.831 17.888,1.74 33.098,-0.198 44.711,-2.344 z m 11.3,-61.299 c -0.372,0.479 -0.694,0.965 -1.074,1.455 -13.95,18.868 -31.253,34.622 -49.821,44.984 -14.7,8.597 -29.814,13.572 -43.185,15.284 -4.721,0.417 -9.143,0.609 -13.127,0.39 -2.304,-0.052 -4.513,-0.445 -6.721,-0.781 -8.135,-5.579 -15.483,-12.118 -21.98,-19.422 4.212,2.267 9.002,4.116 14.348,5.278 18.164,4.145 42.727,-0.206 65.218,-12.902 7.992,-4.72 16.138,-10.505 24.104,-17.416 11.374,-4.059 22.378,-9.836 32.238,-16.87 m 52.893,63.22 c 1.091,1.003 2.277,2.086 3.528,3.28 3.845,3.578 7.698,8.04 11.071,13.586 -11.898,-4.355 -26.983,-6.437 -44.26,-5.827 -12.416,0.46 -25.768,2.327 -39.678,5.511 -23.51,5.132 -48.206,14.005 -72.659,25.659 -4.732,2.247 -9.474,4.611 -14.222,7.106 11.231,-4.586 22.61,-8.177 33.789,-10.59 28.478,-10.826 55.023,-16.921 77.92,-18.717 27.24,-2.084 49.673,2.228 63.959,11.206 7.182,4.453 12.435,10.35 15.707,17.012 0.171,-0.951 0.357,-1.905 0.485,-2.849 0.252,-6.746 -0.347,-12.722 -1.357,-17.976 -2.829,-14.096 -9.073,-23.575 -14.588,-30.329 z m -44.244,47.557 c 9.885,0.648 18.546,2.247 25.98,4.518 20.26,6.817 31.711,21.234 31.915,37.293 0.121,4.683 -0.668,9.469 -2.089,14.15 6.454,-10.009 11.835,-20.066 15.915,-29.984 -0.215,-1.826 -0.362,-3.702 -0.919,-5.395 -0.819,-3.01 -2.22,-6.036 -3.957,-9.115 -5.484,-8.334 -15.113,-15.518 -28.686,-19.754 -16.591,-5.721 -38.883,-6.58 -63.787,-2.755 -0.649,0.084 -1.279,0.216 -1.915,0.297 10.526,1.912 19.949,5.566 27.543,10.745 M 293.699,250.59 c -0.512,-1.924 -1.071,-4.01 -1.647,-6.264 -1.8,-6.828 -3.369,-14.658 -4.308,-23.356 7.369,13.611 17.622,26.994 30.167,38.973 9.021,8.577 19.094,16.264 29.912,22.882 18.226,11.47 38.298,19.603 58.938,24.446 3.996,0.944 8.026,1.771 12.097,2.45 -9.276,-3.084 -18.394,-7.397 -27.048,-12.872 -23.31,-8.722 -43.967,-21.329 -60.856,-36.094 -20.085,-17.616 -35.01,-38.893 -42.85,-59.432 -3.955,-10.254 -6.139,-20.718 -6.707,-30.595 -0.38,0.947 -0.764,1.883 -1.108,2.844 -1.986,7.385 -3.154,14.525 -3.832,21.16 -1.739,17.889 0.198,33.1 2.345,44.712 z m 61.299,11.3 c -0.479,-0.372 -0.964,-0.693 -1.455,-1.074 -18.866,-13.948 -34.621,-31.253 -44.982,-49.822 -8.598,-14.699 -13.573,-29.813 -15.285,-43.182 -0.417,-4.723 -0.609,-9.143 -0.39,-13.128 0.052,-2.304 0.445,-4.514 0.781,-6.721 5.579,-8.135 12.118,-15.484 19.422,-21.981 -2.268,4.211 -4.116,9.003 -5.278,14.349 -4.145,18.162 0.206,42.728 12.902,65.218 4.72,7.992 10.505,16.138 17.416,24.104 4.059,11.372 9.837,22.378 16.869,32.237 m -63.219,52.894 c -1.004,1.091 -2.087,2.277 -3.281,3.528 -3.578,3.845 -8.04,7.697 -13.585,11.07 4.355,-11.899 6.436,-26.982 5.826,-44.262 -0.459,-12.413 -2.326,-25.766 -5.51,-39.676 -5.132,-23.508 -14.005,-48.206 -25.659,-72.659 -2.248,-4.73 -4.612,-9.474 -7.107,-14.222 4.587,11.231 8.177,22.611 10.591,33.788 10.825,28.48 16.92,55.025 18.717,77.921 2.084,27.241 -2.229,49.673 -11.207,63.959 -4.452,7.183 -10.35,12.435 -17.011,15.707 0.95,0.171 1.905,0.356 2.849,0.487 6.745,0.25 12.722,-0.348 17.974,-1.36 14.099,-2.828 23.577,-9.071 30.33,-14.585 z m -47.557,-44.247 c -0.649,9.886 -2.247,18.549 -4.518,25.984 -6.816,20.258 -21.234,31.71 -37.294,31.913 -4.682,0.122 -9.469,-0.668 -14.149,-2.089 10.009,6.455 20.065,11.834 29.984,15.915 1.825,-0.216 3.701,-0.361 5.394,-0.919 3.011,-0.818 6.037,-2.22 9.116,-3.957 8.333,-5.483 15.517,-15.113 19.754,-28.685 5.72,-16.593 6.579,-38.886 2.754,-63.788 -0.083,-0.649 -0.215,-1.279 -0.296,-1.915 -1.912,10.525 -5.566,19.95 -10.745,27.541"
                   style="fill:url(#linearGradient4847);fill-rule:evenodd;stroke:none"
                   id="path4849"
                   inkscape:connector-curvature="0" /></g></g></g></g></g></g></g></svg>